<svg width="512" height="512" viewBox="0 0 512 512" fill="none" xmlns="http://www.w3.org/2000/svg">
<rect width="512" height="512" rx="120" fill="black"/>
<path d="M104.706 255.588H136.471V247.647H144.412V215.882H136.471V207.941H104.706V255.588ZM72.9412 176.176H152.353V184.118H168.235V200H176.176V263.529H168.235V279.412H152.353V287.353H104.706V335H72.9412V176.176ZM231.796 263.529H271.502V231.765H263.56V223.824H255.619V215.882H247.678V223.824H239.737V231.765H231.796V263.529ZM271.502 295.294H231.796V335H200.031V215.882H207.972V207.941H215.913V200H223.855V192.059H231.796V184.118H239.737V176.176H263.56V184.118H271.502V192.059H279.443V200H287.384V207.941H295.325V215.882H303.266V335H271.502V295.294ZM327.121 176.176H406.533V184.118H422.415V200H430.356V239.706H422.415V247.647H414.474V255.588H422.415V263.529H430.356V311.176H422.415V327.059H406.533V335H327.121V176.176ZM358.886 239.706H390.65V231.765H398.591V215.882H390.65V207.941H358.886V239.706ZM390.65 295.294H398.591V279.412H390.65V271.471H358.886V303.235H390.65V295.294Z" fill="white"/>
</svg>
